<?xml version="1.0" encoding="UTF-8" standalone="no"?>
<!DOCTYPE svg PUBLIC "-//W3C//DTD SVG 1.1//EN" "http://www.w3.org/Graphics/SVG/1.1/DTD/svg11.dtd">
<svg xmlns="http://www.w3.org/2000/svg" version="1.1" viewBox="0.00 0.00 400.00 90.00">
<clipPath id="clipping-path-0">
<path d="
  M 0.00 0.00
  L 400.00 0.00
  L 400.00 90.00
  L 0.00 90.00
  L 0.00 0.00
  Z"/>
</clipPath>
<g stroke-width="2.00" fill="none" stroke-linecap="butt" clip-path="url(#clipping-path-0)">
<path stroke="#7e7e7e" vector-effect="non-scaling-stroke" d="
  M 27.76 13.03
  L 27.55 19.53
  Q 27.53 19.97 27.97 19.91
  L 28.39 19.85
  A 0.70 0.70 0.0 0 0 29.00 19.23
  Q 29.35 16.09 28.54 13.01"
/>
<path stroke="#7e7e7e" vector-effect="non-scaling-stroke" d="
  M 28.76 68.98
  Q 29.17 67.25 28.65 65.96
  Q 28.24 64.91 27.73 65.92
  Q 27.18 67.01 27.74 68.98"
/>
<path stroke="#7e7e7e" vector-effect="non-scaling-stroke" d="
  M 28.9746 22.7212
  A 0.67 0.67 0.0 0 0 28.3058 22.0501
  L 28.2458 22.0500
  A 0.67 0.67 0.0 0 0 27.5746 22.7188
  L 27.5654 27.9988
  A 0.67 0.67 0.0 0 0 28.2342 28.6699
  L 28.2942 28.6700
  A 0.67 0.67 0.0 0 0 28.9654 28.0012
  L 28.9746 22.7212"
/>
<path stroke="#7e7e7e" vector-effect="non-scaling-stroke" d="
  M 29.0080 31.4350
  A 0.67 0.67 0.0 0 0 28.3427 30.7604
  L 28.2627 30.7598
  A 0.67 0.67 0.0 0 0 27.5880 31.4251
  L 27.5520 36.5850
  A 0.67 0.67 0.0 0 0 28.2173 37.2596
  L 28.2973 37.2602
  A 0.67 0.67 0.0 0 0 28.9720 36.5949
  L 29.0080 31.4350"
/>
<path stroke="#7e7e7e" vector-effect="non-scaling-stroke" d="
  M 28.9454 40.0688
  A 0.66 0.66 0.0 0 0 28.2843 39.4100
  L 28.2243 39.4101
  A 0.66 0.66 0.0 0 0 27.5654 40.0712
  L 27.5746 45.3112
  A 0.66 0.66 0.0 0 0 28.2357 45.9700
  L 28.2957 45.9699
  A 0.66 0.66 0.0 0 0 28.9546 45.3088
  L 28.9454 40.0688"
/>
<path stroke="#7e7e7e" vector-effect="non-scaling-stroke" d="
  M 28.9388 48.7247
  A 0.64 0.64 0.0 0 0 28.3033 48.0803
  L 28.2433 48.0799
  A 0.64 0.64 0.0 0 0 27.5989 48.7154
  L 27.5612 54.1153
  A 0.64 0.64 0.0 0 0 28.1967 54.7597
  L 28.2567 54.7601
  A 0.64 0.64 0.0 0 0 28.9011 54.1246
  L 28.9388 48.7247"
/>
<path stroke="#7e7e7e" vector-effect="non-scaling-stroke" d="
  M 28.9429 57.5461
  A 0.66 0.66 0.0 0 0 28.2887 56.8804
  L 28.2287 56.8799
  A 0.66 0.66 0.0 0 0 27.5630 57.5341
  L 27.5171 62.7939
  A 0.66 0.66 0.0 0 0 28.1713 63.4596
  L 28.2313 63.4601
  A 0.66 0.66 0.0 0 0 28.8970 62.8059
  L 28.9429 57.5461"
/>
</g>
<path fill="#000000" d="
  M 229.26 39.98
  L 229.26 66.50
  Q 229.26 67.00 228.75 67.00
  L 212.12 67.00
  Q 211.74 67.00 211.74 66.62
  L 211.74 39.98
  Q 211.74 39.47 211.23 39.47
  L 205.50 39.49
  Q 205.00 39.50 205.00 39.00
  L 205.00 27.50
  Q 205.00 27.00 205.50 27.00
  L 211.24 27.00
  Q 211.78 27.00 211.77 26.46
  C 211.31 10.22 223.82 4.41 238.03 8.21
  Q 238.45 8.32 238.41 8.75
  L 237.38 20.70
  Q 237.32 21.41 236.64 21.19
  Q 229.86 19.02 229.20 26.08
  Q 229.11 27.00 230.04 27.00
  L 243.23 27.00
  Q 243.71 27.00 243.71 26.52
  C 243.93 9.76 254.92 4.79 269.93 7.99
  A 0.72 0.72 0.0 0 1 270.49 8.76
  L 269.42 20.80
  Q 269.38 21.32 268.86 21.23
  C 264.32 20.43 260.99 20.86 261.32 26.56
  Q 261.34 27.00 261.79 27.00
  L 269.25 27.00
  Q 269.75 27.00 269.75 27.50
  L 269.74 39.00
  Q 269.74 39.49 269.25 39.49
  L 261.77 39.47
  Q 261.26 39.47 261.26 39.98
  L 261.26 66.50
  Q 261.26 67.00 260.75 67.00
  L 244.00 67.00
  Q 243.74 67.00 243.74 66.75
  L 243.74 39.74
  A 0.26 0.25 90.0 0 0 243.49 39.48
  L 229.76 39.48
  Q 229.26 39.48 229.26 39.98
  Z"
/>
<rect fill="#000000" x="272.74" y="9.52" width="18.00" height="57.48" rx="0.32"/>
<path fill="#0284c7" d="
  M 27.76 13.03
  L 27.55 19.53
  Q 27.53 19.97 27.97 19.91
  L 28.39 19.85
  A 0.70 0.70 0.0 0 0 29.00 19.23
  Q 29.35 16.09 28.54 13.01
  L 92.51 13.03
  Q 93.00 13.03 93.00 13.53
  L 93.00 31.48
  Q 93.00 31.94 92.54 31.97
  C 81.13 32.68 81.13 49.48 92.47 50.42
  Q 93.00 50.46 93.00 51.00
  L 93.00 68.47
  Q 93.00 68.97 92.50 68.97
  L 28.76 68.98
  Q 29.17 67.25 28.65 65.96
  Q 28.24 64.91 27.73 65.92
  Q 27.18 67.01 27.74 68.98
  L 8.70 68.94
  Q 8.24 68.93 8.24 68.47
  L 8.25 51.04
  Q 8.25 50.64 8.66 50.59
  C 20.66 49.07 20.79 33.39 8.75 31.79
  Q 8.27 31.73 8.27 31.24
  L 8.29 13.53
  Q 8.29 13.08 8.74 13.08
  L 27.76 13.03
  Z
  M 28.9746 22.7212
  A 0.67 0.67 0.0 0 0 28.3058 22.0501
  L 28.2458 22.0500
  A 0.67 0.67 0.0 0 0 27.5746 22.7188
  L 27.5654 27.9988
  A 0.67 0.67 0.0 0 0 28.2342 28.6699
  L 28.2942 28.6700
  A 0.67 0.67 0.0 0 0 28.9654 28.0012
  L 28.9746 22.7212
  Z
  M 62.36 35.08
  A 1.62 1.62 0.0 0 1 60.80 33.95
  L 57.59 23.73
  A 1.62 1.62 0.0 0 0 54.49 23.73
  L 51.28 33.95
  A 1.62 1.62 0.0 0 1 49.72 35.08
  L 39.01 34.98
  A 1.62 1.62 0.0 0 0 38.06 37.92
  L 46.78 44.14
  A 1.62 1.62 0.0 0 1 47.37 45.97
  L 43.97 56.12
  A 1.62 1.62 0.0 0 0 46.47 57.94
  L 55.08 51.56
  A 1.62 1.62 0.0 0 1 57.00 51.56
  L 65.61 57.94
  A 1.62 1.62 0.0 0 0 68.11 56.12
  L 64.71 45.97
  A 1.62 1.62 0.0 0 1 65.30 44.14
  L 74.02 37.92
  A 1.62 1.62 0.0 0 0 73.07 34.98
  L 62.36 35.08
  Z
  M 29.0080 31.4350
  A 0.67 0.67 0.0 0 0 28.3427 30.7604
  L 28.2627 30.7598
  A 0.67 0.67 0.0 0 0 27.5880 31.4251
  L 27.5520 36.5850
  A 0.67 0.67 0.0 0 0 28.2173 37.2596
  L 28.2973 37.2602
  A 0.67 0.67 0.0 0 0 28.9720 36.5949
  L 29.0080 31.4350
  Z
  M 28.9454 40.0688
  A 0.66 0.66 0.0 0 0 28.2843 39.4100
  L 28.2243 39.4101
  A 0.66 0.66 0.0 0 0 27.5654 40.0712
  L 27.5746 45.3112
  A 0.66 0.66 0.0 0 0 28.2357 45.9700
  L 28.2957 45.9699
  A 0.66 0.66 0.0 0 0 28.9546 45.3088
  L 28.9454 40.0688
  Z
  M 28.9388 48.7247
  A 0.64 0.64 0.0 0 0 28.3033 48.0803
  L 28.2433 48.0799
  A 0.64 0.64 0.0 0 0 27.5989 48.7154
  L 27.5612 54.1153
  A 0.64 0.64 0.0 0 0 28.1967 54.7597
  L 28.2567 54.7601
  A 0.64 0.64 0.0 0 0 28.9011 54.1246
  L 28.9388 48.7247
  Z
  M 28.9429 57.5461
  A 0.66 0.66 0.0 0 0 28.2887 56.8804
  L 28.2287 56.8799
  A 0.66 0.66 0.0 0 0 27.5630 57.5341
  L 27.5171 62.7939
  A 0.66 0.66 0.0 0 0 28.1713 63.4596
  L 28.2313 63.4601
  A 0.66 0.66 0.0 0 0 28.8970 62.8059
  L 28.9429 57.5461
  Z"
/>
<path fill="#fbfbfb" d="
  M 27.76 13.03
  Q 27.83 13.13 28.54 13.01
  Q 29.35 16.09 29.00 19.23
  A 0.70 0.70 0.0 0 1 28.39 19.85
  L 27.97 19.91
  Q 27.53 19.97 27.55 19.53
  L 27.76 13.03
  Z"
/>
<path fill="#000000" d="
  M 128.48 48.55
  L 128.48 66.51
  Q 128.48 67.00 127.99 67.00
  L 111.28 66.99
  A 0.28 0.27 -0.0 0 1 111.00 66.72
  L 111.00 13.77
  Q 111.00 13.30 111.47 13.30
  Q 123.44 13.18 135.23 13.26
  C 145.94 13.33 155.52 18.22 155.78 30.28
  Q 155.99 40.01 146.90 45.10
  Q 146.47 45.35 146.73 45.78
  L 159.73 66.54
  A 0.30 0.30 0.0 0 1 159.48 67.00
  L 139.83 67.00
  Q 139.31 67.00 139.07 66.54
  L 129.35 48.33
  Q 128.48 46.71 128.48 48.55
  Z
  M 128.24 27.67
  L 128.26 35.47
  A 0.47 0.47 0.0 0 0 128.73 35.94
  L 133.24 35.93
  A 5.04 4.07 -0.1 0 0 138.27 31.85
  L 138.27 31.25
  A 5.04 4.07 -0.1 0 0 133.22 27.19
  L 128.71 27.20
  A 0.47 0.47 0.0 0 0 128.24 27.67
  Z"
/>
<rect fill="#fbfbfb" x="-0.70" y="-3.31" transform="translate(28.27,25.36) rotate(0.1)" width="1.40" height="6.62" rx="0.67"/>
<path fill="#000000" d="
  M 185.83 64.50
  A 0.32 0.31 66.9 0 0 185.27 64.27
  Q 183.71 66.25 180.92 67.14
  C 172.78 69.75 163.31 66.33 162.10 57.00
  C 160.41 44.11 174.82 42.00 183.94 41.72
  Q 185.52 41.67 184.89 40.22
  L 184.70 39.77
  A 2.86 2.85 81.0 0 0 182.38 38.08
  Q 176.80 37.50 172.69 41.16
  A 0.40 0.40 0.0 0 1 172.14 41.15
  L 163.91 33.27
  Q 163.50 32.88 163.89 32.47
  C 169.06 27.04 177.80 25.11 185.01 25.76
  Q 200.65 27.17 201.19 43.04
  Q 201.59 54.76 201.48 66.74
  A 0.27 0.26 -88.9 0 1 201.22 67.00
  L 186.32 67.00
  A 0.64 0.63 2.5 0 1 185.68 66.31
  L 185.83 64.50
  Z
  M 185.71 50.51
  C 183.11 50.32 175.66 50.78 176.75 55.03
  C 178.01 59.90 186.63 57.65 186.24 51.04
  Q 186.21 50.54 185.71 50.51
  Z"
/>
<path fill="#000000" d="
  M 313.87 51.75
  C 314.70 55.70 320.83 56.28 323.84 55.25
  C 324.96 54.86 325.77 54.04 326.86 53.35
  Q 327.36 53.03 327.90 53.30
  L 339.07 58.91
  Q 339.64 59.19 339.27 59.71
  C 332.27 69.41 317.72 70.84 307.79 65.41
  C 299.30 60.77 295.53 50.05 298.26 40.83
  C 304.10 21.10 333.95 19.72 339.80 40.26
  Q 341.21 45.21 340.64 50.87
  Q 340.60 51.26 340.21 51.26
  L 314.27 51.26
  Q 313.77 51.26 313.87 51.75
  Z
  M 313.87 41.78
  L 325.53 41.70
  A 0.14 0.14 0.0 0 0 325.67 41.56
  L 325.67 41.48
  A 5.85 4.76 -0.4 0 0 319.78 36.76
  L 319.54 36.76
  A 5.85 4.76 -0.4 0 0 313.73 41.56
  L 313.73 41.64
  A 0.14 0.14 0.0 0 0 313.87 41.78
  Z"
/>
<path fill="#000000" d="
  M 367.54 47.25
  Q 367.93 48.61 368.27 47.24
  L 373.19 27.47
  Q 373.31 27.00 373.79 27.00
  L 391.48 27.00
  Q 392.04 27.00 391.84 27.53
  Q 380.38 57.56 374.84 71.55
  C 369.59 84.79 357.89 87.20 345.25 84.13
  Q 344.75 84.01 344.83 83.51
  L 346.85 70.21
  Q 346.93 69.72 347.42 69.81
  C 352.32 70.73 356.37 71.47 358.43 66.02
  A 1.27 1.24 44.4 0 0 358.41 65.08
  L 342.56 27.42
  A 0.31 0.30 78.9 0 1 342.84 27.00
  L 361.43 27.00
  A 0.57 0.56 81.7 0 1 361.97 27.41
  L 367.54 47.25
  Z"
/>
<rect fill="#fbfbfb" x="-0.71" y="-3.25" transform="translate(28.28,34.01) rotate(0.4)" width="1.42" height="6.50" rx="0.67"/>
<rect fill="#fbfbfb" x="-0.69" y="-3.28" transform="translate(28.26,42.69) rotate(-0.1)" width="1.38" height="6.56" rx="0.66"/>
<rect fill="#fbfbfb" x="-0.67" y="-3.34" transform="translate(28.25,51.42) rotate(0.4)" width="1.34" height="6.68" rx="0.64"/>
<rect fill="#fbfbfb" x="-0.69" y="-3.29" transform="translate(28.23,60.17) rotate(0.5)" width="1.38" height="6.58" rx="0.66"/>
<path fill="#fbfbfb" d="
  M 28.76 68.98
  L 27.74 68.98
  Q 27.18 67.01 27.73 65.92
  Q 28.24 64.91 28.65 65.96
  Q 29.17 67.25 28.76 68.98
  Z"
/>
</svg>
